<?xml version="1.0"?>
<svg width="871" height="1280" xmlns="http://www.w3.org/2000/svg" xmlns:svg="http://www.w3.org/2000/svg" preserveAspectRatio="xMidYMid meet" version="1.0">
 <metadata>Created by potrace 1.15, written by Peter Selinger 2001-2017</metadata>
 <g class="layer">
  <title>Layer 1</title>
  <g fill="#000000" id="svg_1" transform="matrix(0.1 0 0 -0.1 0 0)">
   <path d="m8603,-62c-39,-35 -123,-94 -188,-133c-86,-51 -146,-97 -226,-172c-60,-57 -111,-103 -114,-103c-14,0 23,48 90,119c52,54 100,92 161,127c47,27 98,59 113,71l26,22l-27,1c-46,0 -350,-112 -514,-191c-117,-55 -150,-95 -276,-327c-22,-41 -42,-72 -44,-69c-3,3 20,63 49,133c72,169 73,174 49,174c-10,0 -41,-17 -68,-37c-27,-21 -105,-75 -174,-120c-231,-152 -227,-147 -289,-309c-31,-80 -87,-171 -98,-160c-3,3 13,36 35,73c61,101 87,183 59,183c-26,0 -337,-221 -389,-276c-34,-37 -61,-106 -87,-227c-37,-169 -77,-280 -133,-364c-29,-42 -53,-72 -56,-65c-2,6 8,28 22,49c39,60 92,208 115,323c11,58 32,138 46,179c14,41 25,76 25,78c0,13 -30,-8 -116,-83c-86,-75 -196,-144 -230,-144c-6,0 -21,-12 -35,-26c-13,-14 -47,-40 -76,-56c-59,-33 -103,-79 -134,-140c-23,-45 -61,-214 -79,-348c-11,-88 -111,-394 -156,-480c-23,-45 -63,-101 -64,-89c0,3 18,44 39,90c68,146 137,386 156,540c26,210 33,207 -136,44c-81,-77 -189,-180 -241,-230c-80,-76 -100,-102 -132,-169c-40,-85 -52,-94 -37,-27c7,34 6,41 -4,39c-21,-5 -273,-255 -303,-301c-25,-37 -27,-51 -32,-164c-5,-119 -6,-123 -24,-110c-18,13 -18,20 -7,122c6,60 9,110 7,112c-9,9 -47,-19 -69,-51c-12,-19 -115,-135 -229,-258c-114,-123 -220,-241 -237,-262c-39,-49 -111,-182 -146,-269c-26,-66 -26,-69 -11,-108c9,-22 16,-45 16,-52c0,-6 -32,-27 -71,-45c-52,-24 -76,-42 -91,-68c-11,-19 -29,-39 -39,-44c-10,-6 -16,-17 -13,-24c4,-10 -10,-19 -46,-31c-97,-32 -218,-155 -350,-357c-92,-139 -96,-194 -29,-405c24,-73 28,-97 19,-113c-6,-11 -15,-18 -20,-15c-4,3 -23,44 -41,93c-28,75 -33,102 -35,192c-1,58 -6,105 -11,104c-10,-1 -167,-235 -270,-402c-75,-122 -122,-232 -123,-285c0,-20 -16,-43 -65,-91c-52,-51 -74,-82 -106,-152c-22,-49 -52,-115 -67,-148c-19,-42 -39,-67 -70,-88c-153,-106 -324,-332 -353,-467c-6,-30 -33,-91 -59,-135c-26,-45 -66,-113 -89,-151c-54,-93 -73,-188 -69,-349c3,-114 2,-119 -20,-133c-20,-14 -22,-14 -22,5c0,12 5,43 11,71c5,27 9,69 7,93l-3,43l-33,-54c-18,-29 -42,-76 -53,-103c-11,-27 -41,-94 -68,-147c-78,-155 -87,-194 -72,-293c8,-46 26,-123 42,-173c15,-49 26,-91 24,-93c-2,-2 -21,23 -43,56c-26,40 -43,82 -51,124c-22,111 -24,112 -63,33c-39,-78 -88,-238 -88,-289c0,-18 7,-54 16,-80c20,-59 12,-70 -17,-22c-11,20 -23,36 -25,36c-11,0 -34,-64 -34,-97c0,-22 -18,-79 -41,-133c-81,-188 -81,-214 2,-377c27,-53 47,-98 45,-101c-10,-9 -29,13 -72,90c-64,110 -89,138 -125,138c-28,0 -41,-22 -20,-35c5,-3 20,-31 32,-63c19,-48 24,-84 29,-237c6,-166 9,-188 39,-276c53,-162 88,-237 164,-353c75,-113 93,-146 78,-146c-4,0 -16,10 -27,21c-10,12 -41,36 -69,54c-27,18 -71,54 -97,80c-40,41 -48,46 -54,31c-13,-34 28,-96 102,-157c85,-70 124,-113 124,-140c0,-11 5,-29 10,-40c15,-27 7,-24 -70,26c-53,34 -75,55 -94,92c-19,38 -26,44 -31,30c-4,-9 -4,-37 -1,-62c7,-44 26,-66 101,-119c15,-10 33,-33 41,-52c12,-30 11,-41 -16,-133c-17,-56 -37,-119 -46,-141l-16,-40l-162,0c-284,-1 -476,-43 -511,-111c-27,-51 -15,-83 41,-112c26,-13 30,-20 26,-45c-6,-40 13,-71 54,-88c22,-9 36,-23 40,-40c11,-45 -4,-345 -21,-424c-52,-235 -135,-378 -332,-572c-117,-117 -192,-177 -378,-306c-287,-199 -409,-314 -537,-507c-32,-49 -73,-118 -89,-153c-97,-201 -71,-460 65,-661c64,-93 145,-161 240,-197l71,-28l355,-3c195,-2 825,0 1400,4c1201,10 1081,-2 1204,113c142,133 215,329 203,545c-6,115 -29,194 -88,304c-94,176 -211,285 -689,646c-251,190 -436,394 -516,570c-59,129 -94,344 -94,583l0,137l38,20c35,19 37,23 34,63c-1,24 2,42 8,42c17,0 50,39 50,59c0,34 -47,77 -110,101c-33,12 -60,23 -60,24c0,7 94,301 112,351c27,76 34,85 69,85c29,0 49,-15 160,-115c62,-57 109,-75 192,-75c60,0 103,14 111,37c5,11 1,13 -15,8c-12,-4 -47,-7 -78,-8c-66,0 -124,26 -187,83c-23,21 -56,46 -73,55c-18,9 -30,22 -28,28c7,22 39,19 91,-6c28,-14 85,-31 126,-37c65,-11 94,-9 213,8c98,15 145,26 159,39c19,17 97,124 142,195c19,30 19,31 1,44c-10,8 -25,14 -32,14c-20,0 -16,15 14,51c36,42 79,59 152,59c123,0 248,44 298,105c16,18 44,73 62,122c38,97 79,180 112,230c20,31 20,33 2,33c-10,0 -58,-30 -107,-67c-128,-98 -132,-101 -121,-83c28,47 166,185 215,215c79,48 159,137 189,210c14,33 39,85 57,115c17,30 45,101 63,157c37,120 81,222 105,242c14,12 27,12 79,2c61,-12 64,-11 129,19c73,34 122,82 228,219c71,93 126,152 163,175c15,10 27,22 27,27c0,12 -81,-21 -163,-66c-37,-20 -72,-35 -78,-33c-6,2 46,35 117,73c100,55 135,80 165,117c20,26 39,53 41,59c3,9 32,1 94,-23c160,-65 207,-71 311,-39c76,23 109,46 151,105c37,51 30,58 -26,22c-85,-56 -230,-60 -341,-10c-34,15 -61,30 -61,35c0,4 42,5 93,2c190,-11 331,36 453,150l62,57l153,0c361,1 557,42 727,154c90,60 133,102 186,183c25,38 66,87 91,107c76,63 221,243 265,331c85,168 94,401 21,543c-26,50 -88,114 -145,147c-51,30 -144,43 -210,31c-61,-12 -44,-33 32,-40c132,-13 234,-86 289,-205c55,-116 36,-298 -47,-468c-41,-83 -65,-118 -135,-190c-46,-48 -86,-85 -89,-82c-3,2 -12,51 -20,107c-18,121 -50,193 -118,267c-87,96 -214,139 -289,99l-34,-18l80,-8c174,-18 257,-103 280,-288c7,-60 -12,-167 -41,-221c-27,-52 -227,-134 -399,-163c-118,-20 -306,-36 -427,-36l-98,0l-6,28c-11,52 -15,62 -25,62c-5,0 -9,4 -9,9c0,5 23,17 52,27c36,12 68,33 104,69c45,44 53,58 59,103c5,35 16,63 37,89c42,52 79,134 81,181c3,76 -45,137 -59,75c-28,-124 -51,-169 -123,-236c-80,-75 -238,-105 -335,-63l-39,16l25,28c31,32 102,176 96,194c-3,8 -26,13 -64,13c-92,1 -123,20 -327,197c-32,28 -56,52 -53,55c2,2 53,-22 113,-55c229,-125 366,-172 499,-172c67,0 89,4 130,25c58,30 117,92 150,157c31,61 31,99 -1,135l-24,28l-1,-46c0,-75 -27,-146 -71,-190c-35,-35 -44,-39 -87,-39c-68,0 -158,47 -217,112c-25,28 -45,58 -43,66c2,8 21,21 43,29c22,7 52,25 66,39c31,30 169,302 169,334c0,20 -1,20 -37,-4c-109,-71 -237,-51 -389,61c-36,26 -61,49 -56,51c5,1 51,-12 103,-29c132,-44 273,-51 339,-17c27,14 56,40 73,66c22,33 34,42 56,42c16,0 62,15 103,34c57,26 83,44 107,78c30,39 32,48 29,100c-5,66 -9,73 -35,60c-12,-7 -23,-31 -31,-69c-17,-84 -54,-118 -125,-117c-61,1 -117,27 -165,77l-33,34l73,5c40,3 88,12 106,22c39,20 91,89 132,174c22,45 35,62 45,58c8,-3 54,-13 102,-22c119,-22 300,-15 398,16c130,41 240,111 297,190c45,60 138,232 138,252c0,33 -18,18 -73,-60c-65,-92 -108,-132 -185,-171c-125,-63 -247,-81 -394,-57c-99,16 -234,55 -278,81l-25,14l31,1c17,0 49,12 70,27c37,25 45,26 184,29c249,4 470,68 527,153c22,32 32,101 15,101c-15,0 -32,-24 -32,-46c0,-37 -55,-82 -127,-104c-82,-25 -208,-27 -356,-3c-122,19 -116,9 -67,118l28,62l56,7c115,13 233,64 303,131c46,45 53,67 15,46c-15,-8 -21,-8 -25,2c-2,7 -24,-7 -56,-36c-68,-61 -128,-79 -247,-75l-89,3l50,23c28,13 69,41 92,64l41,41l149,13c206,18 282,44 391,132c62,51 69,68 40,99c-12,14 -43,39 -67,56l-44,30l79,26c44,14 95,35 114,46c73,44 130,154 130,253c0,36 -3,43 -17,40c-13,-2 -20,-17 -24,-49c-16,-110 -85,-200 -167,-218c-91,-19 -196,15 -279,92c-54,50 -145,166 -138,177c3,4 24,4 47,-2c62,-14 95,-13 124,3c15,7 65,65 113,127c98,129 129,178 118,188c-3,4 -43,-12 -88,-34c-74,-39 -87,-42 -159,-42c-90,0 -128,11 -261,75c-105,50 -103,51 86,19c96,-15 124,-16 225,-6c195,19 249,48 311,166c17,33 47,82 65,107c53,73 45,81 -38,40c-70,-35 -74,-36 -192,-36c-102,0 -130,4 -176,23c-30,12 -62,26 -70,32c-28,17 0,23 47,9c74,-21 316,-19 371,4c23,9 55,17 70,17c15,0 45,10 67,22c22,11 66,29 98,39c71,21 115,54 166,122c49,66 67,116 48,134c-11,12 -20,5 -53,-39c-51,-69 -103,-98 -174,-98c-112,0 -240,44 -376,128c-167,103 -293,151 -404,153c-46,0 -51,2 -31,10c54,22 200,-15 459,-115c125,-48 198,-66 269,-66c97,0 144,22 219,103c36,39 74,88 85,109c12,24 40,51 75,73c70,45 110,88 130,142c23,60 12,76 -18,27c-47,-73 -106,-112 -204,-134c-36,-8 -49,-8 -55,2c-6,9 -13,8 -28,-6c-17,-16 -31,-18 -84,-13c-34,3 -76,11 -92,17l-30,12l48,19c69,27 95,46 158,110c31,32 67,60 80,63c13,2 58,9 99,15c41,6 99,23 127,37c61,29 132,107 162,177c17,39 29,51 63,66c48,21 235,206 263,261c20,38 23,38 -80,-1c-51,-19 -80,-23 -195,-23c-82,-1 -163,5 -205,14l-70,14l220,12c242,13 294,24 372,77c45,31 113,108 113,127c0,5 -16,4 -36,-1c-19,-6 -45,-9 -57,-7c-19,3 -16,7 19,25c58,31 104,72 104,92c0,30 -11,31 -44,6c-57,-44 -112,-58 -231,-59c-100,-1 -156,7 -143,20c3,2 56,9 118,14c203,18 308,55 378,135c40,46 86,125 77,133c-3,3 -31,-9 -64,-27c-54,-29 -66,-31 -154,-31c-53,0 -99,4 -102,10c-4,6 16,10 53,10c97,0 169,19 204,54c42,42 57,83 69,184c5,48 12,97 15,109c11,42 -30,26 -103,-39zm-2277,-1369c-8,-19 -31,-108 -51,-199c-49,-218 -61,-229 -29,-26c19,123 38,190 65,235c25,41 34,36 15,-10zm413,-56c-18,-37 -34,-62 -37,-55c-2,7 11,42 30,77c43,84 49,66 7,-22zm716,17c21,-7 -8,-9 -102,-7c-97,1 -135,6 -145,16c-11,11 5,12 102,7c64,-4 129,-11 145,-16zm-285,-60c41,-12 95,-20 145,-20c73,-1 78,-2 61,-15c-28,-21 -116,-19 -189,6c-125,42 -139,66 -17,29zm-1011,-200c-26,-157 -64,-308 -75,-297c-2,2 0,26 6,53c6,27 22,118 35,202c22,136 48,233 59,221c2,-2 -9,-83 -25,-179zm-440,-320c-16,-44 -45,-135 -65,-203c-19,-67 -40,-126 -45,-132c-12,-11 -8,12 23,125c39,148 70,244 85,267c30,46 31,22 2,-57zm-135,-124c-9,-34 -30,-99 -44,-146c-15,-47 -35,-118 -45,-157c-20,-76 -41,-101 -30,-35c34,196 122,473 134,416c2,-10 -5,-45 -15,-78zm562,-576c149,-51 253,-97 302,-132c28,-21 52,-43 52,-49c0,-11 0,-11 -77,38c-75,48 -270,120 -371,138c-48,8 -91,15 -95,15c-5,0 -5,5 -1,11c9,16 117,4 190,-21zm-1012,-66c11,-29 6,-69 -11,-94l-17,-24l-6,29c-14,68 14,141 34,89zm-4,-188c0,-61 -117,-376 -140,-376c-6,0 -4,14 6,38c32,71 73,199 84,263c15,80 27,112 40,104c6,-3 10,-16 10,-29zm1210,-277c63,-21 141,-46 174,-56c96,-30 70,-56 -33,-33c-90,19 -169,49 -281,105c-142,72 -165,93 -60,54c47,-17 137,-49 200,-70zm-627,-158c62,-21 134,-50 161,-65c61,-32 329,-121 419,-138c71,-13 81,-27 29,-42c-22,-6 -51,-4 -97,8c-64,16 -297,109 -455,181c-61,28 -89,35 -150,37c-72,2 -283,-16 -325,-28c-18,-5 -18,-4 -5,9c21,20 75,37 119,37c20,0 61,9 91,20c75,26 86,26 213,-19zm-665,17c-3,-7 -36,-18 -74,-25c-88,-15 -101,-16 -88,-3c30,30 170,54 162,28zm1556,-3c-31,-24 -82,-17 -57,8c3,4 22,7 42,7c33,0 34,-1 15,-15zm411,-87c14,-14 -105,-28 -228,-28c-126,0 -223,14 -199,29c13,8 419,7 427,-1zm-1432,-172c90,-23 207,-68 207,-79c0,-8 -73,2 -215,28c-215,39 -292,48 -396,43c-54,-3 -96,-1 -93,3c28,47 328,50 497,5zm-1099,-152c0,-163 -21,-323 -44,-348c-12,-12 -11,298 1,404c12,103 17,122 32,117c9,-3 12,-52 11,-173zm-424,-101c0,-27 -1,-57 -1,-68c-2,-103 2,-260 11,-405c7,-114 8,-189 2,-215c-8,-32 -11,-35 -13,-15c-3,32 -6,54 -9,60c-1,3 -3,61 -5,130c-1,69 -8,166 -14,215c-14,115 -14,230 0,295c13,63 30,65 29,3zm1645,-338c94,-46 217,-102 274,-126l104,-43l-27,-23c-39,-34 -104,-31 -185,7c-74,35 -203,118 -311,199c-41,32 -90,66 -107,76c-18,11 -33,23 -33,27c0,14 110,-32 285,-117zm-689,71c94,-25 174,-76 270,-171c88,-88 256,-317 216,-296c-31,17 -129,127 -182,206c-27,40 -71,91 -97,114c-92,78 -234,131 -355,131c-60,0 -88,16 -41,23c61,9 141,6 189,-7zm-196,-309c66,-27 219,-125 220,-140c0,-5 -15,1 -32,13c-105,70 -293,139 -384,141c-32,0 -35,2 -19,10c35,16 146,4 215,-24zm-951,-214c6,-31 11,-88 10,-127c-1,-67 -2,-69 -11,-31c-5,22 -18,70 -30,106c-15,53 -17,71 -9,88c18,33 27,25 40,-36zm731,-342c49,-11 102,-27 117,-36l28,-16l-30,5c-230,41 -412,46 -504,12c-84,-31 -80,-16 9,34c55,31 55,31 173,26c64,-3 157,-15 207,-25zm-1220,-123c51,-167 118,-501 104,-517c-8,-9 -15,9 -53,140c-46,156 -66,244 -81,352c-12,95 -12,97 -1,97c5,0 19,-33 31,-72zm940,-53c0,-2 -33,-14 -72,-26c-40,-12 -99,-30 -130,-40c-65,-22 -68,-22 -68,-11c0,20 175,81 233,82c20,0 37,-2 37,-5zm-1325,-236c-9,-30 -20,-63 -25,-74c-7,-18 -8,-19 -15,-2c-11,25 3,81 26,112c12,14 23,24 26,22c2,-3 -3,-29 -12,-58zm-306,-595c12,-39 27,-77 35,-83c13,-11 10,-19 -16,-56c-17,-24 -35,-42 -39,-39c-22,13 -38,203 -22,264c6,22 7,23 14,5c4,-11 17,-52 28,-91zm1891,31c63,-9 153,-22 200,-29c141,-24 267,-28 340,-12c57,12 68,12 85,0c143,-103 239,-148 339,-160c57,-7 66,-16 66,-73c0,-24 -1,-24 -72,-17c-166,15 -314,53 -788,199c-151,47 -291,88 -310,92c-19,4 -42,11 -50,16c-16,10 1,9 190,-16zm1256,-2c-19,-37 -52,-66 -106,-95c-85,-44 -306,-26 -351,28c-11,13 -6,14 42,7c131,-19 284,6 374,61c51,33 59,32 41,-1zm-3082,-189c9,-3 16,-10 16,-15c0,-14 -26,-10 -40,6c-13,16 -3,20 24,9zm56,-234c46,-137 110,-368 110,-394c0,-6 -6,-4 -14,4c-12,14 -40,101 -127,404c-26,88 -37,158 -25,145c3,-3 28,-74 56,-159zm1690,85c80,-19 224,-53 320,-76c96,-22 179,-44 183,-48c21,-20 -180,-71 -279,-71c-52,0 -67,6 -189,75c-137,78 -274,135 -324,135c-16,0 -62,-16 -102,-35c-98,-47 -125,-51 -211,-29c-95,24 -242,24 -323,0c-32,-10 -90,-33 -128,-52c-78,-39 -85,-40 -66,-18c19,23 114,68 189,90c88,25 248,25 352,0l77,-19l93,46l93,47l85,-5c47,-3 150,-21 230,-40zm1875,19c-31,-25 -103,-54 -185,-76c-110,-29 -555,-40 -527,-12c5,5 162,24 407,49c86,9 189,24 230,34c94,24 99,24 75,5zm-1100,-189c206,-38 203,-36 104,-85c-88,-45 -171,-64 -249,-56c-119,11 -115,6 -67,97c29,54 47,77 57,74c8,-2 78,-16 155,-30zm-2852,-248c8,-88 28,-156 106,-350c32,-81 54,-146 48,-144c-6,2 -37,53 -69,113c-61,116 -116,266 -125,344c-5,48 12,124 26,115c5,-2 11,-37 14,-78zm1219,68c47,-8 118,-26 159,-41c382,-136 387,-137 581,-138c87,-1 158,-4 158,-7c0,-14 -36,-19 -143,-19c-131,0 -185,11 -413,79c-296,89 -469,116 -587,91c-32,-6 -61,-9 -65,-6c-12,13 20,30 80,42c86,17 131,16 230,-1zm43,-405c83,-16 219,-37 303,-47c83,-9 152,-21 152,-27c0,-12 -193,0 -290,18c-369,71 -585,70 -727,-2c-50,-26 -60,-27 -42,-6c16,20 106,61 174,79c90,25 261,19 430,-15zm-833,-316c-86,-215 -153,-374 -207,-494c-25,-58 -63,-148 -82,-200c-20,-52 -73,-189 -119,-305c-93,-239 -177,-477 -227,-645c-107,-358 -132,-436 -140,-447c-13,-17 -36,-16 -43,2c-6,15 49,201 121,405c25,69 56,163 71,210c28,90 104,292 160,425c18,44 65,159 103,255c38,96 93,227 121,290c62,138 147,338 201,475c63,159 94,221 97,198c2,-12 -24,-88 -56,-169zm1076,-19c3,-3 -18,-5 -47,-5c-29,0 -82,-6 -119,-14c-98,-21 -692,-30 -692,-11c0,23 21,29 115,35c109,7 735,3 743,-5zm-1718,-118c14,-32 29,-47 58,-60c55,-24 114,-100 132,-171c7,-26 7,-28 -3,-12c-74,117 -92,138 -137,161c-37,19 -51,33 -64,65c-28,71 -16,86 14,17zm1838,-99c-3,-7 -40,-28 -83,-46c-58,-24 -90,-32 -120,-29c-31,3 -35,5 -20,11c11,4 56,22 100,40c86,36 129,44 123,24zm-2003,-135l76,-106l-37,-38c-27,-28 -41,-36 -50,-28c-23,19 -56,113 -65,183c-5,39 -12,79 -15,89c-11,36 14,8 91,-100zm139,-244c21,-45 42,-107 47,-138c11,-69 12,-181 1,-181c-5,0 -39,63 -76,140c-59,119 -68,145 -63,176c6,38 31,84 46,84c4,0 25,-37 45,-81zm973,-198c9,-4 5,-16 -13,-39c-43,-54 -106,-66 -309,-58c-93,4 -171,9 -174,11c-8,9 34,47 72,67c22,11 58,23 80,28c45,8 324,1 344,-9zm187,-7c35,-5 44,-10 36,-19c-17,-21 -170,-82 -170,-68c0,3 8,17 18,31c10,15 22,35 25,45c7,19 20,20 91,11zm-439,-498c208,-20 123,-31 -124,-17c-203,12 -296,7 -332,-14c-5,-4 -9,1 -9,9c0,47 130,53 465,22zm-126,-166c10,-6 -35,-9 -132,-10c-122,0 -158,-4 -208,-20c-34,-12 -64,-18 -67,-15c-12,12 36,46 78,55c53,11 306,3 329,-10z" fill="#ff0000" id="svg_2"/>
  </g>
 </g>
</svg>